<?xml version="1.0"?>
<svg xmlns="http://www.w3.org/2000/svg" xmlns:xlink="http://www.w3.org/1999/xlink" xmlns:svgjs="http://svgjs.com/svgjs" version="1.1" width="512" height="512" x="0" y="0" viewBox="0 0 455.431 455.431" style="enable-background:new 0 0 512 512" xml:space="preserve" class=""><g>
<path xmlns="http://www.w3.org/2000/svg" style="" d="M405.493,412.764c-69.689,56.889-287.289,56.889-355.556,0c-69.689-56.889-62.578-300.089,0-364.089  s292.978-64,355.556,0S475.182,355.876,405.493,412.764z" fill="#00c4ff" data-original="#5ca4da"/>
<path xmlns="http://www.w3.org/2000/svg" style="" d="M229.138,313.209c-62.578,49.778-132.267,75.378-197.689,76.8  c-48.356-82.489-38.4-283.022,18.489-341.333c51.2-52.622,211.911-62.578,304.356-29.867  C377.049,112.676,330.116,232.142,229.138,313.209z" fill="#32cfff" data-original="#6dafe0" class=""/>
<g xmlns="http://www.w3.org/2000/svg">
	<path style="" d="M227.716,60.053c-92.444,0-167.822,75.378-167.822,167.822s75.378,167.822,167.822,167.822   s167.822-75.378,167.822-167.822S320.16,60.053,227.716,60.053z M227.716,361.564c-73.956,0-132.267-59.733-132.267-132.267   c0-73.956,59.733-132.267,132.267-132.267c73.956,0,132.267,59.733,132.267,132.267S301.671,361.564,227.716,361.564z" fill="#ff4a90" data-original="#ffffff" class=""/>
	<path style="" d="M256.16,246.364c17.067-7.111,25.6-19.911,25.6-41.244c0-15.644-4.267-27.022-14.222-34.133   c-8.533-7.111-24.178-9.956-44.089-9.956h-49.778v132.267h27.022v-42.667h22.756l29.867,42.667h34.133L256.16,246.364z    M253.316,205.12c0,7.111-1.422,12.8-5.689,15.644c-4.267,2.844-11.378,4.267-22.756,4.267h-24.178v-39.822h24.178   c12.8,0,19.911,2.844,22.756,4.267C250.471,193.742,253.316,198.009,253.316,205.12z" fill="#ff4a90" data-original="#ffffff" class=""/>
</g>
<g xmlns="http://www.w3.org/2000/svg">
</g>
<g xmlns="http://www.w3.org/2000/svg">
</g>
<g xmlns="http://www.w3.org/2000/svg">
</g>
<g xmlns="http://www.w3.org/2000/svg">
</g>
<g xmlns="http://www.w3.org/2000/svg">
</g>
<g xmlns="http://www.w3.org/2000/svg">
</g>
<g xmlns="http://www.w3.org/2000/svg">
</g>
<g xmlns="http://www.w3.org/2000/svg">
</g>
<g xmlns="http://www.w3.org/2000/svg">
</g>
<g xmlns="http://www.w3.org/2000/svg">
</g>
<g xmlns="http://www.w3.org/2000/svg">
</g>
<g xmlns="http://www.w3.org/2000/svg">
</g>
<g xmlns="http://www.w3.org/2000/svg">
</g>
<g xmlns="http://www.w3.org/2000/svg">
</g>
<g xmlns="http://www.w3.org/2000/svg">
</g>
</g></svg>
